<svg width="47" height="52" viewBox="0 0 47 52" fill="none" xmlns="http://www.w3.org/2000/svg">
<path d="M28.4825 42.0974C30.7055 36.9991 27.0325 30.479 20.2787 27.5342C13.525 24.5894 6.24791 26.3351 4.02498 31.4334C1.80204 36.5316 5.47501 43.0518 12.2288 45.9965C18.9825 48.9413 26.2596 47.1956 28.4825 42.0974Z" stroke="#3A3734" stroke-width="2" stroke-miterlimit="10" stroke-linecap="round" stroke-linejoin="round"/>
<path d="M4.91504 31.188C4.91504 31.188 10.805 37.738 15.405 37.158C20.005 36.578 22.485 38.388 27.745 43.408" stroke="#3A3734" stroke-width="2" stroke-miterlimit="10" stroke-linecap="round" stroke-linejoin="round"/>
<path d="M19.0557 26.7984C19.1257 21.8484 23.8957 17.6184 30.4857 16.4084C37.7357 15.0784 44.4157 18.4384 45.4257 23.9084C46.4357 29.3784 41.3757 34.8884 34.1257 36.2184C32.3157 36.5484 30.5357 36.5884 28.8757 36.3784" stroke="#3A3734" stroke-width="2" stroke-miterlimit="10" stroke-linecap="round" stroke-linejoin="round"/>
<path d="M44.8157 24.6085C44.8157 24.6085 36.2657 22.4685 32.7857 25.5185C29.2957 28.5685 26.5557 28.4085 19.3857 27.1785" stroke="#3A3734" stroke-width="2" stroke-miterlimit="10" stroke-linecap="round" stroke-linejoin="round"/>
<path d="M19.4543 20.4537C26.1251 19.2289 30.7833 14.1537 29.8587 9.11798C28.9341 4.08227 22.7768 0.99294 16.106 2.21778C9.43512 3.44262 4.77689 8.5178 5.70151 13.5535C6.62612 18.5892 12.7834 21.6786 19.4543 20.4537Z" stroke="#3A3734" stroke-width="2" stroke-miterlimit="10" stroke-linecap="round" stroke-linejoin="round"/>
<path d="M29.3059 9.76837C29.3059 9.76837 21.4359 7.79837 18.2259 10.6084C15.0159 13.4184 12.1859 13.3084 5.58594 12.1784" stroke="#3A3734" stroke-width="2" stroke-miterlimit="10" stroke-linecap="round" stroke-linejoin="round"/>
</svg>
