<svg width="35" height="35" viewBox="0 0 35 35" fill="none" xmlns="http://www.w3.org/2000/svg">
<path d="M17.4979 0L0 17.4979L17.4979 34.9958L34.9958 17.4979L17.4979 0ZM3.57032 17.4979L17.4979 3.57032L31.4255 17.4979L17.4979 31.4255L3.57032 17.4979Z" fill="#1A1A1A"/>
<path d="M17.4979 6.96167C13.4282 6.96167 9.72476 11.9843 9.72476 17.4979C9.72476 23.0115 13.4282 28.0341 17.4979 28.0341C21.5676 28.0341 25.2711 23.0115 25.2711 17.4979C25.2711 11.9843 21.5676 6.96167 17.4979 6.96167ZM12.2548 17.4979C12.2548 15.076 13.1911 12.6833 14.5102 11.152C14.3853 11.7055 14.3187 12.2755 14.3187 12.8581C14.3187 14.947 15.1343 16.9111 16.6074 18.3884C18.5382 20.3192 18.6631 23.3777 16.9861 25.4541C14.5226 24.9922 12.2548 21.2804 12.2548 17.4979ZM20.4815 23.8521C21.0474 21.322 20.3567 18.5673 18.3926 16.6032C16.4618 14.6724 16.3369 11.6139 18.0139 9.53746C20.4732 10.0035 22.7452 13.7153 22.7452 17.4979C22.7452 19.928 21.8048 22.3249 20.4815 23.8521Z" fill="#1A1A1A"/>
</svg>
