<svg width="39" height="48" viewBox="0 0 39 48" fill="none" xmlns="http://www.w3.org/2000/svg">
<path d="M26.1196 46.9999H8.78961C6.74961 46.9999 5.09961 45.3499 5.09961 43.3099V13.1899H29.8096V43.3099C29.8096 45.3499 28.1596 46.9999 26.1196 46.9999Z" stroke="#3A3734" stroke-width="2" stroke-miterlimit="10" stroke-linecap="round" stroke-linejoin="round"/>
<path d="M29.81 8.72998H1C1 11.19 2.98998 13.18 5.44998 13.18H29.8V8.72998H29.81Z" stroke="#3A3734" stroke-width="2" stroke-miterlimit="10" stroke-linecap="round" stroke-linejoin="round"/>
<path d="M29.8096 8.72977H5.09961V7.44977C5.09961 5.40977 6.74961 3.75977 8.78961 3.75977H26.1196C28.1596 3.75977 29.8096 5.40977 29.8096 7.44977V8.72977Z" stroke="#3A3734" stroke-width="2" stroke-miterlimit="10" stroke-linecap="round" stroke-linejoin="round"/>
<path d="M19.4796 3.76001H14.0996V3.69C14.0996 2.21 15.2996 1 16.7896 1C18.2696 1 19.4796 2.2 19.4796 3.69V3.76001Z" stroke="#3A3734" stroke-width="2" stroke-miterlimit="10" stroke-linecap="round" stroke-linejoin="round"/>
<path d="M33.4503 38.58H29.8203V13.1899H33.4503C35.6103 13.1899 37.3603 14.9399 37.3603 17.0999V34.67C37.3603 36.82 35.6103 38.58 33.4503 38.58Z" stroke="#3A3734" stroke-width="2" stroke-miterlimit="10" stroke-linecap="round" stroke-linejoin="round"/>
<path d="M29.8096 28.0801H5.09961V31.1201H29.8096V28.0801Z" stroke="#3A3734" stroke-width="2" stroke-miterlimit="10" stroke-linecap="round" stroke-linejoin="round"/>
<path d="M16.79 13.5801V27.3301" stroke="#3A3734" stroke-width="2" stroke-miterlimit="10" stroke-linecap="round" stroke-linejoin="round"/>
</svg>
